# xmcd
#
# Track frame offsets:
#	150
#	16863
#	35758
#	54605
#	73446
#	87143
#	104244
#	119070
#	136016
#	155707
#	172420
#	191315
#	210162
#	229003
#	242700
#	259801
#	274627
#	291573
#	311414
#
# Disc length: 4516 seconds
#
# Revision: 2
# Processed by: cddbd v1.5.2PL0 Copyright (c) Steve Scherf et al.
# Submitted via: audiograbber 1.83.01
#
DISCID=2211a213
DTITLE=Various Artist - PHN0711
DYEAR=2007
DGENRE=Karaoke
TTITLE0=Brooks, Garth  - More Than A Memory
TTITLE1=Chesney, Kenny  - Don't Blink
TTITLE2=Paisley, Brad - I'm Still A Guy
TTITLE3=Paisley, Brad and Carrie Underwood - Oh Love (Duet)
TTITLE4=Sugarland - County Line
TTITLE5=Big and Rich - Between Raising Hell and Amazing Grace
TTITLE6=Aldean, Jason - Laughed Until We Cried
TTITLE7=Allan, Gary - Watching Airplanes
TTITLE8=Green, Pat - Way Back Texas
TTITLE9=Brooks, Garth  - More Than A Memory w/vocals
TTITLE10=Chesney, Kenny  - Don't Blink w/vocal
TTITLE11=Paisley, Brad - I'm Still A Guy w/vocal
TTITLE12=Paisley, Brad and Carrie Underwood - Oh Love (Duet) w/vocal
TTITLE13=Sugarland - County Line w/vocal
TTITLE14=Big and Rich - Between Raising Hell and Amazing Grace w/vocal
TTITLE15=Aldean, Jason - Laughed Until We Cried w/vocal
TTITLE16=Allan, Gary - Watching Airplanes w/vocal
TTITLE17=Green, Pat - Way Back Texas w/vocal
TTITLE18=Hickey, Raymond  - Begging For You (Bonus)
EXTD=
EXTT0=
EXTT1=
EXTT2=
EXTT3=
EXTT4=
EXTT5=
EXTT6=
EXTT7=
EXTT8=
EXTT9=
EXTT10=
EXTT11=
EXTT12=
EXTT13=
EXTT14=
EXTT15=
EXTT16=
EXTT17=
EXTT18=
PLAYORDER=
